<?xml version="1.0" standalone="no"?>
<!DOCTYPE svg PUBLIC "-//W3C//DTD SVG 20010904//EN"
 "http://www.w3.org/TR/2001/REC-SVG-20010904/DTD/svg10.dtd">
<svg version="1.0" xmlns="http://www.w3.org/2000/svg"
 width="500.000000pt" height="500.000000pt" viewBox="0 0 500.000000 500.000000"
 preserveAspectRatio="xMidYMid meet">

<g transform="translate(0.000000,500.000000) scale(0.100000,-0.100000)"
fill="#00a2ff" stroke="none">
<path d="M3746 4061 c-144 -131 -338 -197 -836 -286 -459 -82 -658 -129 -859
-202 -258 -93 -471 -230 -604 -388 -161 -192 -249 -412 -278 -693 -13 -134 -3
-294 26 -407 25 -96 81 -234 129 -315 l44 -75 -47 -50 c-145 -153 -273 -355
-355 -559 -44 -108 -46 -147 -10 -175 35 -27 75 -27 101 2 11 12 32 54 47 92
40 101 73 169 127 260 50 85 168 243 213 284 l26 24 32 -35 c73 -79 221 -189
327 -243 317 -160 712 -205 1091 -123 495 106 851 446 1030 986 82 246 120
511 120 832 0 292 -32 571 -95 820 -78 311 -116 353 -229 251z m88 -341 c93
-408 108 -855 40 -1230 -111 -617 -445 -1024 -945 -1154 -249 -64 -588 -58
-819 16 -175 55 -366 167 -472 275 l-58 59 68 53 c365 292 906 484 1321 469
120 -5 126 -4 148 18 37 37 27 100 -20 125 -12 7 -71 15 -132 18 l-110 6 55
39 c223 160 419 382 554 627 53 97 44 159 -24 174 -46 10 -72 -13 -124 -110
-137 -259 -368 -493 -651 -662 -120 -72 -281 -150 -389 -189 -35 -13 -38 -13
-31 4 57 135 80 319 56 444 -19 96 -67 203 -97 217 -38 17 -62 13 -89 -14 -31
-30 -31 -56 -1 -131 65 -161 48 -346 -48 -517 -51 -93 -91 -131 -196 -188
-114 -62 -221 -133 -314 -207 -54 -43 -70 -52 -78 -41 -29 42 -101 206 -125
284 -25 83 -27 104 -27 265 0 159 2 185 28 284 86 338 268 554 592 708 200 94
435 157 889 238 531 94 772 164 915 264 19 13 38 21 42 18 3 -4 22 -77 42
-162z"/>
</g>
</svg>
